<svg width="1919" height="1186" viewBox="0 0 1919 1186" fill="none" xmlns="http://www.w3.org/2000/svg">
<path d="M-119 -110V131.03V702.263V1161.61V1166.76C-118.239 1166.16 -117.491 1165.57 -116.743 1164.97C-77.6479 1133.4 -35.6745 1106.09 8.96193 1082.94C56.5022 1058.3 106.401 1039.61 157.632 1024.31C211.576 1008.2 266.839 999.173 322.837 994.559C346.969 992.569 371.176 991.251 395.371 990.465C430.852 989.299 466.358 990.224 501.776 992.011C533.237 993.609 564.672 996.131 596.019 999.718C626.238 1003.18 656.418 1006.8 686.446 1011.59C740.251 1020.19 793.776 1030.29 846.947 1042.24C915.778 1057.72 984.204 1074.74 1052.41 1092.74C1129.69 1113.13 1207.03 1133.32 1285.12 1150.45C1327.38 1159.71 1369.89 1167.76 1412.73 1173.93C1439.41 1177.78 1466.25 1180.39 1493.11 1182.95C1517.52 1185.27 1542.01 1185.79 1566.37 1185.98C1582.89 1186.1 1599.67 1185.76 1616.35 1184.34C1641.68 1182.19 1666.87 1179.51 1691.84 1174.86C1728.86 1167.96 1764.83 1157.31 1800.14 1144.28C1845.12 1127.67 1888.57 1107.78 1930 1083.58C1967.64 1061.58 2002.7 1036.12 2036 1008.21V1004.52V702.263V131.03V-110H-119Z" fill="url(#paint0_linear)"/>
<defs>
<linearGradient id="paint0_linear" x1="2057.5" y1="765" x2="730.5" y2="1307.5" gradientUnits="userSpaceOnUse">
<stop stop-color="#B50000"/>
<stop offset="1" stop-color="#F41616"/>
</linearGradient>
</defs>
</svg>
